<?xml version="1.0" encoding="UTF-8" standalone="no"?><!DOCTYPE svg PUBLIC "-//W3C//DTD SVG 1.1//EN" "http://www.w3.org/Graphics/SVG/1.1/DTD/svg11.dtd">
<svg width="100%" height="100%" viewBox="0 0 39 39" version="1.1" 
    xmlns="http://www.w3.org/2000/svg" 
    xmlns:xlink="http://www.w3.org/1999/xlink" xml:space="preserve" 
    xmlns:serif="http://www.serif.com/" style="fill-rule:evenodd;clip-rule:evenodd;stroke-linejoin:round;stroke-miterlimit:1.41421;">
    <g>
        <path id="Circle" d="M19.382,0c7.275,0.035 14.277,4.528 17.343,11.09c2.576,5.513 2.316,12.26 -0.693,17.563c-4.826,8.508 -16.68,12.491 -25.963,7.372c-4.717,-2.601 -8.247,-7.257 -9.457,-12.491c-1.655,-7.162 1.181,-15.142 7.131,-19.648c3.236,-2.451 7.273,-3.827 11.329,-3.884c0.103,-0.002 0.207,-0.002 0.31,-0.002Zm-0.118,1.92c-6.511,0.031 -12.85,4.075 -15.61,9.982c-2.3,4.924 -2.088,10.957 0.573,15.713c4.305,7.698 14.837,11.46 23.417,6.729c4.273,-2.356 7.468,-6.585 8.537,-11.347c1.684,-7.499 -2.199,-15.913 -9.374,-19.373c-2.341,-1.129 -4.954,-1.708 -7.543,-1.704Z" style="fill:#a51e37;fill-rule:nonzero;"/>
        <rect x="17.4" y="7.2" width="3.84" height="24" style="fill:#a51e37;"/>
    </g>
</svg>