<svg version="1" xmlns="http://www.w3.org/2000/svg" width="346.667" height="346.667" viewBox="0 0 260.000000 260.000000"><path d="M115 .7C61.4 8.1 21.5 41.9 5.2 94c-2 6.5-2.4 8.2-4.2 19.5-1.6 9.4-1 32.5 1.1 42.4C10.2 195 36.5 229.3 72 247c16.5 8.3 33.3 12.2 53.1 12.5 23.5.4 44.2-4.4 64.3-14.9 35-18.2 57.6-46.9 66.6-84.2 7.5-31.6 2.2-68.3-13.9-95.3-16.1-27.2-42.9-48.6-73.2-58.5-10.5-3.4-13.5-4.1-24.4-5.6C138.6.2 120 .1 115 .7zm37.4 14.8c23.8 5.1 42.1 14.9 58.2 30.9 35.9 36 45.8 89.1 25 133.2-8.2 17.3-21.4 33.5-36.6 45.1-11.3 8.6-29.2 16.7-43.1 19.7-27.2 5.7-53.2 2.4-78.2-10-34.1-16.8-56-46-63.1-83.9-2.2-11.6-1.5-36.2 1.3-47.5 2.6-10.5 7.4-22.5 12-30.5C41.8 48.3 66.1 28.7 94 19c16.4-5.7 41.5-7.2 58.4-3.5z"/><path d="M116.5 129.8l.1 80.7h25.9l.1-80.8V49h-26.1v80.8z"/></svg>